<svg xmlns="http://www.w3.org/2000/svg" xml:space="preserve" width="2000" height="242" stroke="#000" data-id="lg_6Z5WlZYx6uGusqZkZe" data-version="1"><g data-padding="20"><g transform="translate(10 4.515)scale(.96269)"><path fill="#3b3b3b" stroke="transparent" stroke-width=".54" d="M943.617 194.667h-19.37V68.627h19.37Zm-9.52-147.04q-5.66 0-9.73-3.86-4.06-3.86-4.06-9.27 0-5.42 4.06-9.28 4.07-3.85 9.73-3.85t9.72 3.85q4.06 3.86 4.06 9.28 0 5.41-4.06 9.27t-9.72 3.86m82.05 149.98q-11.98 0-21.74-4.55-9.77-4.56-15.51-13.21-5.74-8.66-5.74-20.97 0-10.83 4.26-17.6 4.27-6.77 11.41-10.62 7.14-3.86 15.79-5.79 8.66-1.93 17.44-3.08 11.49-1.47 18.67-2.25t10.5-2.67 3.32-6.56v-.66q0-12.14-6.6-18.87-6.61-6.73-19.98-6.73-13.87 0-21.75 6.07-7.87 6.07-11.07 12.96l-18.38-6.56q4.92-11.49 13.17-17.93 8.24-6.44 18.05-9.02 9.8-2.59 19.32-2.59 6.07 0 13.99 1.44 7.92 1.43 15.35 5.86 7.42 4.43 12.35 13.38 4.92 8.94 4.92 23.96v83.04h-19.37v-17.07h-.98q-1.97 4.1-6.56 8.78-4.6 4.68-12.23 7.96t-18.63 3.28m2.96-17.39q11.48 0 19.4-4.52 7.92-4.51 11.98-11.65t4.06-15.01v-17.73q-1.23 1.48-5.37 2.67t-9.52 2.05q-5.37.86-10.42 1.48-5.05.61-8.16 1.02-7.55.99-14.08 3.16-6.52 2.18-10.5 6.48-3.98 4.31-3.98 11.7 0 10.09 7.51 15.22t19.08 5.13m79.75-111.6h65.32v16.41h-65.32Zm19.04 95.19V38.427h19.37v120.12q0 8.21 2.42 12.27t6.23 5.42q3.82 1.35 8.09 1.35 3.2 0 5.25-.37t3.28-.61l3.94 17.39q-1.97.74-5.5 1.52t-8.94.78q-8.21 0-16.05-3.53-7.83-3.53-12.96-10.75t-5.13-18.21m87.96 78.12q-4.92 0-8.78-.78-3.85-.78-5.33-1.51l4.92-17.07q7.06 1.8 12.48 1.31 5.41-.49 9.64-4.8 4.22-4.31 7.75-13.91l3.61-9.84-46.6-126.7h21l34.79 100.44h1.32l34.79-100.44h21l-53.5 144.42q-3.61 9.76-8.94 16.21-5.33 6.44-12.35 9.55-7.02 3.12-15.8 3.12"/><rect width="220.652" height="137.86" x="529.371" y="-304.943" fill="none" stroke="none" rx="0" ry="0" transform="translate(372.4 372.1)"/><path fill="#3b3b3b" stroke="none" d="M760.298 111.107 877.712.073l-6.381 228.448Z" vector-effect="non-scaling-stroke"/></g><path fill="transparent" stroke="transparent" d="M732 0h536v242H732z"/></g></svg>