<svg xmlns="http://www.w3.org/2000/svg" xml:space="preserve" width="2000" height="242" stroke="#000" data-id="lg_6Z5WlZYx6uGusqZkZe" data-version="1"><g data-padding="20"><g transform="translate(10 4.507)scale(.96276)"><path fill="#222" stroke="transparent" stroke-width=".54" d="M944.707 194.796h-19.31V69.106h19.31Zm-9.49-146.64q-5.65 0-9.7-3.84-4.05-3.85-4.05-9.25t4.05-9.25q4.05-3.84 9.7-3.84 5.64 0 9.69 3.84 4.06 3.85 4.06 9.25t-4.06 9.25q-4.05 3.84-9.69 3.84m81.83 149.58q-11.95 0-21.69-4.54t-15.46-13.17q-5.73-8.63-5.73-20.91 0-10.8 4.25-17.55 4.26-6.75 11.38-10.6 7.12-3.84 15.75-5.77 8.63-1.92 17.39-3.07 11.45-1.47 18.61-2.25 7.16-.77 10.48-2.66 3.31-1.88 3.31-6.54v-.66q0-12.11-6.58-18.82-6.59-6.71-19.93-6.71-13.83 0-21.68 6.06-7.86 6.05-11.05 12.93l-18.33-6.55q4.91-11.45 13.13-17.88 8.23-6.42 18-9 9.78-2.58 19.28-2.58 6.05 0 13.95 1.43 7.89 1.44 15.3 5.86 7.4 4.41 12.31 13.33t4.91 23.9v82.81h-19.31v-17.02h-.98q-1.96 4.09-6.55 8.75-4.58 4.67-12.19 7.94t-18.57 3.27m2.94-17.34q11.46 0 19.35-4.5 7.9-4.5 11.95-11.62t4.05-14.98v-17.67q-1.23 1.47-5.36 2.66-4.13 1.18-9.49 2.04t-10.39 1.47q-5.03.62-8.14 1.03-7.53.98-14.04 3.15-6.5 2.17-10.47 6.46-3.97 4.3-3.97 11.66 0 10.07 7.49 15.18 7.48 5.12 19.02 5.12m79.54-111.29h65.14v16.37h-65.14Zm18.98 94.92V38.996h19.32v119.79q0 8.19 2.41 12.24t6.22 5.4q3.8 1.35 8.06 1.35 3.19 0 5.24-.37 2.04-.37 3.27-.61l3.93 17.34q-1.97.74-5.49 1.52-3.51.77-8.92.77-8.18 0-15.99-3.51-7.82-3.52-12.93-10.72-5.12-7.2-5.12-18.17m87.73 77.9q-4.91 0-8.75-.78-3.85-.77-5.32-1.51l4.91-17.02q7.04 1.8 12.44 1.31t9.61-4.79q4.22-4.29 7.73-13.87l3.61-9.82-46.48-126.34h20.94l34.7 100.16h1.31l34.69-100.16h20.95l-53.35 144.02q-3.6 9.74-8.92 16.16t-12.31 9.53q-7 3.11-15.76 3.11"/><rect width="220.652" height="137.86" x="529.411" y="-305.084" fill="none" stroke="none" rx="0" ry="0" transform="translate(373.56 372.37)"/><path fill="#222" stroke="none" d="M760.018 111.107 877.433.074l-6.381 228.448Z" vector-effect="non-scaling-stroke"/><rect width="28.572" height="29.9" x="316.189" y="-154.965" fill="#fff" stroke="none" rx="60.39" ry="60.39" transform="rotate(2.7 -7267.37 4220.015)scale(1.9)" vector-effect="non-scaling-stroke"/></g><path fill="transparent" stroke="transparent" d="M731.5 0h537v242h-537z"/></g></svg>