<svg xmlns="http://www.w3.org/2000/svg" version="1.1" xmlns:xlink="http://www.w3.org/1999/xlink" xmlns:svgjs="http://svgjs.dev/svgjs" width="1440" height="560" preserveAspectRatio="none" viewBox="0 0 1440 560"><g mask="url(&quot;#SvgjsMask1000&quot;)" fill="none"><path d="M-49.43 384.62L-49.43 384.62" stroke="rgba(186, 194, 209, 1)" stroke-width="1.5"></path><path d="M-49.43 384.62L60.73 378.79" stroke="rgba(186, 194, 209, 1)" stroke-width="1.5"></path><path d="M-49.43 384.62L-97.72 497.01" stroke="rgba(186, 194, 209, 1)" stroke-width="1.5"></path><path d="M-49.43 384.62L105.55 488.8" stroke="rgba(186, 194, 209, 1)" stroke-width="1.5"></path><path d="M-97.72 497.01L-97.72 497.01" stroke="rgba(186, 194, 209, 1)" stroke-width="1.5"></path><path d="M-97.72 497.01L-61.41 649.71" stroke="rgba(186, 194, 209, 1)" stroke-width="1.5"></path><path d="M-97.72 497.01L60.73 378.79" stroke="rgba(186, 194, 209, 1)" stroke-width="1.5"></path><path d="M-97.72 497.01L105.55 488.8" stroke="rgba(186, 194, 209, 1)" stroke-width="1.5"></path><path d="M-97.72 497.01L86.06 648.64" stroke="rgba(186, 194, 209, 1)" stroke-width="1.5"></path><path d="M-97.72 497.01L195.82 363.19" stroke="rgba(186, 194, 209, 1)" stroke-width="1.5"></path><path d="M-61.41 649.71L-61.41 649.71" stroke="rgba(186, 194, 209, 1)" stroke-width="1.5"></path><path d="M-61.41 649.71L86.06 648.64" stroke="rgba(186, 194, 209, 1)" stroke-width="1.5"></path><path d="M-61.41 649.71L105.55 488.8" stroke="rgba(186, 194, 209, 1)" stroke-width="1.5"></path><path d="M-61.41 649.71L-49.43 384.62" stroke="rgba(186, 194, 209, 1)" stroke-width="1.5"></path><path d="M60.73 378.79L60.73 378.79" stroke="rgba(186, 194, 209, 1)" stroke-width="1.5"></path><path d="M60.73 378.79L105.55 488.8" stroke="rgba(186, 194, 209, 1)" stroke-width="1.5"></path><path d="M60.73 378.79L195.82 363.19" stroke="rgba(186, 194, 209, 1)" stroke-width="1.5"></path><path d="M105.55 488.8L105.55 488.8" stroke="rgba(186, 194, 209, 1)" stroke-width="1.5"></path><path d="M105.55 488.8L195.82 363.19" stroke="rgba(186, 194, 209, 1)" stroke-width="1.5"></path><path d="M105.55 488.8L86.06 648.64" stroke="rgba(186, 194, 209, 1)" stroke-width="1.5"></path><path d="M105.55 488.8L260.46 561.09" stroke="rgba(186, 194, 209, 1)" stroke-width="1.5"></path><path d="M86.06 648.64L86.06 648.64" stroke="rgba(186, 194, 209, 1)" stroke-width="1.5"></path><path d="M195.82 363.19L195.82 363.19" stroke="rgba(186, 194, 209, 1)" stroke-width="1.5"></path><path d="M195.82 363.19L340.08 410.28" stroke="rgba(186, 194, 209, 1)" stroke-width="1.5"></path><path d="M195.82 363.19L260.46 561.09" stroke="rgba(186, 194, 209, 1)" stroke-width="1.5"></path><path d="M260.46 561.09L260.46 561.09" stroke="rgba(186, 194, 209, 1)" stroke-width="1.5"></path><path d="M260.46 561.09L260.64 664.97" stroke="rgba(186, 194, 209, 1)" stroke-width="1.5"></path><path d="M260.46 561.09L375.07 639.32" stroke="rgba(186, 194, 209, 1)" stroke-width="1.5"></path><path d="M260.46 561.09L410.57 494.99" stroke="rgba(186, 194, 209, 1)" stroke-width="1.5"></path><path d="M260.46 561.09L340.08 410.28" stroke="rgba(186, 194, 209, 1)" stroke-width="1.5"></path><path d="M260.46 561.09L86.06 648.64" stroke="rgba(186, 194, 209, 1)" stroke-width="1.5"></path><path d="M260.64 664.97L260.64 664.97" stroke="rgba(186, 194, 209, 1)" stroke-width="1.5"></path><path d="M260.64 664.97L375.07 639.32" stroke="rgba(186, 194, 209, 1)" stroke-width="1.5"></path><path d="M260.64 664.97L86.06 648.64" stroke="rgba(186, 194, 209, 1)" stroke-width="1.5"></path><path d="M260.64 664.97L410.57 494.99" stroke="rgba(186, 194, 209, 1)" stroke-width="1.5"></path><path d="M340.08 410.28L340.08 410.28" stroke="rgba(186, 194, 209, 1)" stroke-width="1.5"></path><path d="M340.08 410.28L410.57 494.99" stroke="rgba(186, 194, 209, 1)" stroke-width="1.5"></path><path d="M340.08 410.28L518.79 383.93" stroke="rgba(186, 194, 209, 1)" stroke-width="1.5"></path><path d="M410.57 494.99L410.57 494.99" stroke="rgba(186, 194, 209, 1)" stroke-width="1.5"></path><path d="M410.57 494.99L518.92 526.24" stroke="rgba(186, 194, 209, 1)" stroke-width="1.5"></path><path d="M375.07 639.32L375.07 639.32" stroke="rgba(186, 194, 209, 1)" stroke-width="1.5"></path><path d="M518.79 383.93L518.79 383.93" stroke="rgba(186, 194, 209, 1)" stroke-width="1.5"></path><path d="M518.79 383.93L518.92 526.24" stroke="rgba(186, 194, 209, 1)" stroke-width="1.5"></path><path d="M518.92 526.24L518.92 526.24" stroke="rgba(186, 194, 209, 1)" stroke-width="1.5"></path><path d="M518.92 526.24L640.66 559.49" stroke="rgba(186, 194, 209, 1)" stroke-width="1.5"></path><path d="M548.18 674.41L548.18 674.41" stroke="rgba(186, 194, 209, 1)" stroke-width="1.5"></path><path d="M548.18 674.41L669.21 693.41" stroke="rgba(186, 194, 209, 1)" stroke-width="1.5"></path><path d="M548.18 674.41L640.66 559.49" stroke="rgba(186, 194, 209, 1)" stroke-width="1.5"></path><path d="M548.18 674.41L518.92 526.24" stroke="rgba(186, 194, 209, 1)" stroke-width="1.5"></path><path d="M548.18 674.41L375.07 639.32" stroke="rgba(186, 194, 209, 1)" stroke-width="1.5"></path><path d="M548.18 674.41L410.57 494.99" stroke="rgba(186, 194, 209, 1)" stroke-width="1.5"></path><path d="M548.18 674.41L832.33 703.8" stroke="rgba(186, 194, 209, 1)" stroke-width="1.5"></path><path d="M699.36 201.98L699.36 201.98" stroke="rgba(186, 194, 209, 1)" stroke-width="1.5"></path><path d="M699.36 201.98L857.42 227.93" stroke="rgba(186, 194, 209, 1)" stroke-width="1.5"></path><path d="M699.36 201.98L849.92 97.34" stroke="rgba(186, 194, 209, 1)" stroke-width="1.5"></path><path d="M667.42 403.42L667.42 403.42" stroke="rgba(186, 194, 209, 1)" stroke-width="1.5"></path><path d="M667.42 403.42L798.64 363.74" stroke="rgba(186, 194, 209, 1)" stroke-width="1.5"></path><path d="M667.42 403.42L518.79 383.93" stroke="rgba(186, 194, 209, 1)" stroke-width="1.5"></path><path d="M640.66 559.49L640.66 559.49" stroke="rgba(186, 194, 209, 1)" stroke-width="1.5"></path><path d="M669.21 693.41L669.21 693.41" stroke="rgba(186, 194, 209, 1)" stroke-width="1.5"></path><path d="M669.21 693.41L640.66 559.49" stroke="rgba(186, 194, 209, 1)" stroke-width="1.5"></path><path d="M669.21 693.41L832.33 703.8" stroke="rgba(186, 194, 209, 1)" stroke-width="1.5"></path><path d="M669.21 693.41L832.14 555.22" stroke="rgba(186, 194, 209, 1)" stroke-width="1.5"></path><path d="M849.92 97.34L849.92 97.34" stroke="rgba(186, 194, 209, 1)" stroke-width="1.5"></path><path d="M849.92 97.34L857.42 227.93" stroke="rgba(186, 194, 209, 1)" stroke-width="1.5"></path><path d="M857.42 227.93L857.42 227.93" stroke="rgba(186, 194, 209, 1)" stroke-width="1.5"></path><path d="M857.42 227.93L959.64 196.59" stroke="rgba(186, 194, 209, 1)" stroke-width="1.5"></path><path d="M798.64 363.74L798.64 363.74" stroke="rgba(186, 194, 209, 1)" stroke-width="1.5"></path><path d="M798.64 363.74L857.42 227.93" stroke="rgba(186, 194, 209, 1)" stroke-width="1.5"></path><path d="M798.64 363.74L699.36 201.98" stroke="rgba(186, 194, 209, 1)" stroke-width="1.5"></path><path d="M798.64 363.74L832.14 555.22" stroke="rgba(186, 194, 209, 1)" stroke-width="1.5"></path><path d="M832.14 555.22L832.14 555.22" stroke="rgba(186, 194, 209, 1)" stroke-width="1.5"></path><path d="M832.14 555.22L832.33 703.8" stroke="rgba(186, 194, 209, 1)" stroke-width="1.5"></path><path d="M832.14 555.22L1008.22 537.55" stroke="rgba(186, 194, 209, 1)" stroke-width="1.5"></path><path d="M832.14 555.22L640.66 559.49" stroke="rgba(186, 194, 209, 1)" stroke-width="1.5"></path><path d="M832.33 703.8L832.33 703.8" stroke="rgba(186, 194, 209, 1)" stroke-width="1.5"></path><path d="M832.33 703.8L1004.79 668.25" stroke="rgba(186, 194, 209, 1)" stroke-width="1.5"></path><path d="M832.33 703.8L640.66 559.49" stroke="rgba(186, 194, 209, 1)" stroke-width="1.5"></path><path d="M832.33 703.8L1008.22 537.55" stroke="rgba(186, 194, 209, 1)" stroke-width="1.5"></path><path d="M832.33 703.8L1114.59 695.49" stroke="rgba(186, 194, 209, 1)" stroke-width="1.5"></path><path d="M1000.85 -94.22L1000.85 -94.22" stroke="rgba(186, 194, 209, 1)" stroke-width="1.5"></path><path d="M1000.85 -94.22L1158.44 -51.54" stroke="rgba(186, 194, 209, 1)" stroke-width="1.5"></path><path d="M1000.85 -94.22L1102.09 70.38" stroke="rgba(186, 194, 209, 1)" stroke-width="1.5"></path><path d="M1000.85 -94.22L849.92 97.34" stroke="rgba(186, 194, 209, 1)" stroke-width="1.5"></path><path d="M959.64 196.59L959.64 196.59" stroke="rgba(186, 194, 209, 1)" stroke-width="1.5"></path><path d="M959.64 196.59L849.92 97.34" stroke="rgba(186, 194, 209, 1)" stroke-width="1.5"></path><path d="M959.64 196.59L1113.11 195.74" stroke="rgba(186, 194, 209, 1)" stroke-width="1.5"></path><path d="M959.64 196.59L1102.09 70.38" stroke="rgba(186, 194, 209, 1)" stroke-width="1.5"></path><path d="M994.66 406.48L994.66 406.48" stroke="rgba(186, 194, 209, 1)" stroke-width="1.5"></path><path d="M994.66 406.48L1095.91 360.57" stroke="rgba(186, 194, 209, 1)" stroke-width="1.5"></path><path d="M994.66 406.48L1008.22 537.55" stroke="rgba(186, 194, 209, 1)" stroke-width="1.5"></path><path d="M994.66 406.48L1155.91 523.43" stroke="rgba(186, 194, 209, 1)" stroke-width="1.5"></path><path d="M994.66 406.48L798.64 363.74" stroke="rgba(186, 194, 209, 1)" stroke-width="1.5"></path><path d="M994.66 406.48L959.64 196.59" stroke="rgba(186, 194, 209, 1)" stroke-width="1.5"></path><path d="M994.66 406.48L832.14 555.22" stroke="rgba(186, 194, 209, 1)" stroke-width="1.5"></path><path d="M1008.22 537.55L1008.22 537.55" stroke="rgba(186, 194, 209, 1)" stroke-width="1.5"></path><path d="M1008.22 537.55L1004.79 668.25" stroke="rgba(186, 194, 209, 1)" stroke-width="1.5"></path><path d="M1008.22 537.55L1155.91 523.43" stroke="rgba(186, 194, 209, 1)" stroke-width="1.5"></path><path d="M1008.22 537.55L1114.59 695.49" stroke="rgba(186, 194, 209, 1)" stroke-width="1.5"></path><path d="M1008.22 537.55L1095.91 360.57" stroke="rgba(186, 194, 209, 1)" stroke-width="1.5"></path><path d="M1004.79 668.25L1004.79 668.25" stroke="rgba(186, 194, 209, 1)" stroke-width="1.5"></path><path d="M1004.79 668.25L1114.59 695.49" stroke="rgba(186, 194, 209, 1)" stroke-width="1.5"></path><path d="M1158.44 -51.54L1158.44 -51.54" stroke="rgba(186, 194, 209, 1)" stroke-width="1.5"></path><path d="M1158.44 -51.54L1281.87 -79.82" stroke="rgba(186, 194, 209, 1)" stroke-width="1.5"></path><path d="M1158.44 -51.54L1102.09 70.38" stroke="rgba(186, 194, 209, 1)" stroke-width="1.5"></path><path d="M1102.09 70.38L1102.09 70.38" stroke="rgba(186, 194, 209, 1)" stroke-width="1.5"></path><path d="M1102.09 70.38L1113.11 195.74" stroke="rgba(186, 194, 209, 1)" stroke-width="1.5"></path><path d="M1113.11 195.74L1113.11 195.74" stroke="rgba(186, 194, 209, 1)" stroke-width="1.5"></path><path d="M1113.11 195.74L1095.91 360.57" stroke="rgba(186, 194, 209, 1)" stroke-width="1.5"></path><path d="M1113.11 195.74L1299.62 73.93" stroke="rgba(186, 194, 209, 1)" stroke-width="1.5"></path><path d="M1113.11 195.74L1277.28 358.09" stroke="rgba(186, 194, 209, 1)" stroke-width="1.5"></path><path d="M1113.11 195.74L994.66 406.48" stroke="rgba(186, 194, 209, 1)" stroke-width="1.5"></path><path d="M1095.91 360.57L1095.91 360.57" stroke="rgba(186, 194, 209, 1)" stroke-width="1.5"></path><path d="M1155.91 523.43L1155.91 523.43" stroke="rgba(186, 194, 209, 1)" stroke-width="1.5"></path><path d="M1155.91 523.43L1259.05 516.27" stroke="rgba(186, 194, 209, 1)" stroke-width="1.5"></path><path d="M1155.91 523.43L1095.91 360.57" stroke="rgba(186, 194, 209, 1)" stroke-width="1.5"></path><path d="M1155.91 523.43L1114.59 695.49" stroke="rgba(186, 194, 209, 1)" stroke-width="1.5"></path><path d="M1114.59 695.49L1114.59 695.49" stroke="rgba(186, 194, 209, 1)" stroke-width="1.5"></path><path d="M1114.59 695.49L1257.37 703.1" stroke="rgba(186, 194, 209, 1)" stroke-width="1.5"></path><path d="M1114.59 695.49L1259.05 516.27" stroke="rgba(186, 194, 209, 1)" stroke-width="1.5"></path><path d="M1281.87 -79.82L1281.87 -79.82" stroke="rgba(186, 194, 209, 1)" stroke-width="1.5"></path><path d="M1281.87 -79.82L1423.2 -60.79" stroke="rgba(186, 194, 209, 1)" stroke-width="1.5"></path><path d="M1299.62 73.93L1299.62 73.93" stroke="rgba(186, 194, 209, 1)" stroke-width="1.5"></path><path d="M1299.62 73.93L1454.34 75.38" stroke="rgba(186, 194, 209, 1)" stroke-width="1.5"></path><path d="M1299.62 73.93L1281.87 -79.82" stroke="rgba(186, 194, 209, 1)" stroke-width="1.5"></path><path d="M1299.62 73.93L1402.71 194.3" stroke="rgba(186, 194, 209, 1)" stroke-width="1.5"></path><path d="M1299.62 73.93L1423.2 -60.79" stroke="rgba(186, 194, 209, 1)" stroke-width="1.5"></path><path d="M1277.28 358.09L1277.28 358.09" stroke="rgba(186, 194, 209, 1)" stroke-width="1.5"></path><path d="M1277.28 358.09L1259.05 516.27" stroke="rgba(186, 194, 209, 1)" stroke-width="1.5"></path><path d="M1277.28 358.09L1444.92 347.35" stroke="rgba(186, 194, 209, 1)" stroke-width="1.5"></path><path d="M1277.28 358.09L1095.91 360.57" stroke="rgba(186, 194, 209, 1)" stroke-width="1.5"></path><path d="M1259.05 516.27L1259.05 516.27" stroke="rgba(186, 194, 209, 1)" stroke-width="1.5"></path><path d="M1257.37 703.1L1257.37 703.1" stroke="rgba(186, 194, 209, 1)" stroke-width="1.5"></path><path d="M1257.37 703.1L1428.67 638.16" stroke="rgba(186, 194, 209, 1)" stroke-width="1.5"></path><path d="M1257.37 703.1L1259.05 516.27" stroke="rgba(186, 194, 209, 1)" stroke-width="1.5"></path><path d="M1423.2 -60.79L1423.2 -60.79" stroke="rgba(186, 194, 209, 1)" stroke-width="1.5"></path><path d="M1423.2 -60.79L1454.34 75.38" stroke="rgba(186, 194, 209, 1)" stroke-width="1.5"></path><path d="M1454.34 75.38L1454.34 75.38" stroke="rgba(186, 194, 209, 1)" stroke-width="1.5"></path><path d="M1454.34 75.38L1583.1 67.49" stroke="rgba(186, 194, 209, 1)" stroke-width="1.5"></path><path d="M1454.34 75.38L1402.71 194.3" stroke="rgba(186, 194, 209, 1)" stroke-width="1.5"></path><path d="M1402.71 194.3L1402.71 194.3" stroke="rgba(186, 194, 209, 1)" stroke-width="1.5"></path><path d="M1402.71 194.3L1444.92 347.35" stroke="rgba(186, 194, 209, 1)" stroke-width="1.5"></path><path d="M1444.92 347.35L1444.92 347.35" stroke="rgba(186, 194, 209, 1)" stroke-width="1.5"></path><path d="M1444.92 347.35L1556.77 402.47" stroke="rgba(186, 194, 209, 1)" stroke-width="1.5"></path><path d="M1444.92 347.35L1556.04 496.16" stroke="rgba(186, 194, 209, 1)" stroke-width="1.5"></path><path d="M1428.67 638.16L1428.67 638.16" stroke="rgba(186, 194, 209, 1)" stroke-width="1.5"></path><path d="M1428.67 638.16L1556.04 496.16" stroke="rgba(186, 194, 209, 1)" stroke-width="1.5"></path><path d="M1428.67 638.16L1259.05 516.27" stroke="rgba(186, 194, 209, 1)" stroke-width="1.5"></path><path d="M1428.67 638.16L1556.77 402.47" stroke="rgba(186, 194, 209, 1)" stroke-width="1.5"></path><path d="M1428.67 638.16L1444.92 347.35" stroke="rgba(186, 194, 209, 1)" stroke-width="1.5"></path><path d="M1612 -61.98L1612 -61.98" stroke="rgba(186, 194, 209, 1)" stroke-width="1.5"></path><path d="M1612 -61.98L1583.1 67.49" stroke="rgba(186, 194, 209, 1)" stroke-width="1.5"></path><path d="M1612 -61.98L1423.2 -60.79" stroke="rgba(186, 194, 209, 1)" stroke-width="1.5"></path><path d="M1612 -61.98L1454.34 75.38" stroke="rgba(186, 194, 209, 1)" stroke-width="1.5"></path><path d="M1612 -61.98L1599.26 214.77" stroke="rgba(186, 194, 209, 1)" stroke-width="1.5"></path><path d="M1583.1 67.49L1583.1 67.49" stroke="rgba(186, 194, 209, 1)" stroke-width="1.5"></path><path d="M1583.1 67.49L1599.26 214.77" stroke="rgba(186, 194, 209, 1)" stroke-width="1.5"></path><path d="M1583.1 67.49L1423.2 -60.79" stroke="rgba(186, 194, 209, 1)" stroke-width="1.5"></path><path d="M1599.26 214.77L1599.26 214.77" stroke="rgba(186, 194, 209, 1)" stroke-width="1.5"></path><path d="M1599.26 214.77L1556.77 402.47" stroke="rgba(186, 194, 209, 1)" stroke-width="1.5"></path><path d="M1599.26 214.77L1402.71 194.3" stroke="rgba(186, 194, 209, 1)" stroke-width="1.5"></path><path d="M1599.26 214.77L1454.34 75.38" stroke="rgba(186, 194, 209, 1)" stroke-width="1.5"></path><path d="M1599.26 214.77L1444.92 347.35" stroke="rgba(186, 194, 209, 1)" stroke-width="1.5"></path><path d="M1556.77 402.47L1556.77 402.47" stroke="rgba(186, 194, 209, 1)" stroke-width="1.5"></path><path d="M1556.77 402.47L1556.04 496.16" stroke="rgba(186, 194, 209, 1)" stroke-width="1.5"></path><path d="M1556.04 496.16L1556.04 496.16" stroke="rgba(186, 194, 209, 1)" stroke-width="1.5"></path><circle r="5" cx="-49.43" cy="384.62" fill="rgba(186, 194, 209, 1)"></circle><circle r="5" cx="-97.72" cy="497.01" fill="rgba(186, 194, 209, 1)"></circle><circle r="5" cx="-61.41" cy="649.71" fill="rgba(186, 194, 209, 1)"></circle><circle r="5" cx="60.73" cy="378.79" fill="rgba(186, 194, 209, 1)"></circle><circle r="5" cx="105.55" cy="488.8" fill="rgba(186, 194, 209, 1)"></circle><circle r="5" cx="86.06" cy="648.64" fill="rgba(186, 194, 209, 1)"></circle><circle r="5" cx="195.82" cy="363.19" fill="rgba(186, 194, 209, 1)"></circle><circle r="5" cx="260.46" cy="561.09" fill="rgba(186, 194, 209, 1)"></circle><circle r="5" cx="260.64" cy="664.97" fill="rgba(186, 194, 209, 1)"></circle><circle r="5" cx="340.08" cy="410.28" fill="rgba(186, 194, 209, 1)"></circle><circle r="5" cx="410.57" cy="494.99" fill="rgba(186, 194, 209, 1)"></circle><circle r="5" cx="375.07" cy="639.32" fill="rgba(186, 194, 209, 1)"></circle><circle r="5" cx="518.79" cy="383.93" fill="rgba(186, 194, 209, 1)"></circle><circle r="5" cx="518.92" cy="526.24" fill="rgba(186, 194, 209, 1)"></circle><circle r="5" cx="548.18" cy="674.41" fill="rgba(186, 194, 209, 1)"></circle><circle r="5" cx="699.36" cy="201.98" fill="rgba(186, 194, 209, 1)"></circle><circle r="5" cx="667.42" cy="403.42" fill="rgba(186, 194, 209, 1)"></circle><circle r="5" cx="640.66" cy="559.49" fill="rgba(186, 194, 209, 1)"></circle><circle r="5" cx="669.21" cy="693.41" fill="rgba(186, 194, 209, 1)"></circle><circle r="5" cx="849.92" cy="97.34" fill="rgba(186, 194, 209, 1)"></circle><circle r="5" cx="857.42" cy="227.93" fill="rgba(186, 194, 209, 1)"></circle><circle r="5" cx="798.64" cy="363.74" fill="rgba(186, 194, 209, 1)"></circle><circle r="5" cx="832.14" cy="555.22" fill="rgba(186, 194, 209, 1)"></circle><circle r="5" cx="832.33" cy="703.8" fill="rgba(186, 194, 209, 1)"></circle><circle r="5" cx="1000.85" cy="-94.22" fill="rgba(186, 194, 209, 1)"></circle><circle r="5" cx="959.64" cy="196.59" fill="rgba(186, 194, 209, 1)"></circle><circle r="5" cx="994.66" cy="406.48" fill="rgba(186, 194, 209, 1)"></circle><circle r="5" cx="1008.22" cy="537.55" fill="rgba(186, 194, 209, 1)"></circle><circle r="5" cx="1004.79" cy="668.25" fill="rgba(186, 194, 209, 1)"></circle><circle r="5" cx="1158.44" cy="-51.54" fill="rgba(186, 194, 209, 1)"></circle><circle r="5" cx="1102.09" cy="70.38" fill="rgba(186, 194, 209, 1)"></circle><circle r="5" cx="1113.11" cy="195.74" fill="rgba(186, 194, 209, 1)"></circle><circle r="5" cx="1095.91" cy="360.57" fill="rgba(186, 194, 209, 1)"></circle><circle r="5" cx="1155.91" cy="523.43" fill="rgba(186, 194, 209, 1)"></circle><circle r="5" cx="1114.59" cy="695.49" fill="rgba(186, 194, 209, 1)"></circle><circle r="5" cx="1281.87" cy="-79.82" fill="rgba(186, 194, 209, 1)"></circle><circle r="5" cx="1299.62" cy="73.93" fill="rgba(186, 194, 209, 1)"></circle><circle r="5" cx="1277.28" cy="358.09" fill="rgba(186, 194, 209, 1)"></circle><circle r="5" cx="1259.05" cy="516.27" fill="rgba(186, 194, 209, 1)"></circle><circle r="5" cx="1257.37" cy="703.1" fill="rgba(186, 194, 209, 1)"></circle><circle r="5" cx="1423.2" cy="-60.79" fill="rgba(186, 194, 209, 1)"></circle><circle r="5" cx="1454.34" cy="75.38" fill="rgba(186, 194, 209, 1)"></circle><circle r="5" cx="1402.71" cy="194.3" fill="rgba(186, 194, 209, 1)"></circle><circle r="5" cx="1444.92" cy="347.35" fill="rgba(186, 194, 209, 1)"></circle><circle r="5" cx="1428.67" cy="638.16" fill="rgba(186, 194, 209, 1)"></circle><circle r="5" cx="1612" cy="-61.98" fill="rgba(186, 194, 209, 1)"></circle><circle r="5" cx="1583.1" cy="67.49" fill="rgba(186, 194, 209, 1)"></circle><circle r="5" cx="1599.26" cy="214.77" fill="rgba(186, 194, 209, 1)"></circle><circle r="5" cx="1556.77" cy="402.47" fill="rgba(186, 194, 209, 1)"></circle><circle r="5" cx="1556.04" cy="496.16" fill="rgba(186, 194, 209, 1)"></circle><path d="M93.64 498.13L93.64 498.13" stroke="hsl(229.39999999999998, 26.2%, 100%)" stroke-width="1.5"></path><path d="M93.64 498.13L205.47 536.6" stroke="hsl(229.39999999999998, 26.2%, 100%)" stroke-width="1.5"></path><path d="M93.64 498.13L-46.32 561" stroke="hsl(229.39999999999998, 26.2%, 100%)" stroke-width="1.5"></path><path d="M93.64 498.13L191.9 643.18" stroke="hsl(229.39999999999998, 26.2%, 100%)" stroke-width="1.5"></path><path d="M93.64 498.13L-102.71 666.95" stroke="hsl(229.39999999999998, 26.2%, 100%)" stroke-width="1.5"></path><path d="M93.64 498.13L393.34 526.63" stroke="hsl(229.39999999999998, 26.2%, 100%)" stroke-width="1.5"></path><path d="M1405.74 556.85L1405.74 556.85" stroke="hsl(229.39999999999998, 26.2%, 100%)" stroke-width="1.5"></path><path d="M1405.74 556.85L1421.95 689.36" stroke="hsl(229.39999999999998, 26.2%, 100%)" stroke-width="1.5"></path><path d="M1405.74 556.85L1263.85 519.99" stroke="hsl(229.39999999999998, 26.2%, 100%)" stroke-width="1.5"></path><path d="M1405.74 556.85L1551.32 529.24" stroke="hsl(229.39999999999998, 26.2%, 100%)" stroke-width="1.5"></path><path d="M1405.74 556.85L1552.52 653.94" stroke="hsl(229.39999999999998, 26.2%, 100%)" stroke-width="1.5"></path><path d="M1552.94 81.14L1552.94 81.14" stroke="hsl(229.39999999999998, 26.2%, 100%)" stroke-width="1.5"></path><path d="M1552.94 81.14L1460.47 89.89" stroke="hsl(229.39999999999998, 26.2%, 100%)" stroke-width="1.5"></path><path d="M1552.94 81.14L1574.34 -112.43" stroke="hsl(229.39999999999998, 26.2%, 100%)" stroke-width="1.5"></path><path d="M-46.32 561L-46.32 561" stroke="hsl(229.39999999999998, 26.2%, 100%)" stroke-width="1.5"></path><path d="M-46.32 561L-102.71 666.95" stroke="hsl(229.39999999999998, 26.2%, 100%)" stroke-width="1.5"></path><path d="M-102.71 666.95L-102.71 666.95" stroke="hsl(229.39999999999998, 26.2%, 100%)" stroke-width="1.5"></path><path d="M-102.71 666.95L191.9 643.18" stroke="hsl(229.39999999999998, 26.2%, 100%)" stroke-width="1.5"></path><path d="M-102.71 666.95L205.47 536.6" stroke="hsl(229.39999999999998, 26.2%, 100%)" stroke-width="1.5"></path><path d="M205.47 536.6L205.47 536.6" stroke="hsl(229.39999999999998, 26.2%, 100%)" stroke-width="1.5"></path><path d="M205.47 536.6L191.9 643.18" stroke="hsl(229.39999999999998, 26.2%, 100%)" stroke-width="1.5"></path><path d="M191.9 643.18L191.9 643.18" stroke="hsl(229.39999999999998, 26.2%, 100%)" stroke-width="1.5"></path><path d="M191.9 643.18L393.96 673.64" stroke="hsl(229.39999999999998, 26.2%, 100%)" stroke-width="1.5"></path><path d="M191.9 643.18L393.34 526.63" stroke="hsl(229.39999999999998, 26.2%, 100%)" stroke-width="1.5"></path><path d="M191.9 643.18L-46.32 561" stroke="hsl(229.39999999999998, 26.2%, 100%)" stroke-width="1.5"></path><path d="M393.34 526.63L393.34 526.63" stroke="hsl(229.39999999999998, 26.2%, 100%)" stroke-width="1.5"></path><path d="M393.34 526.63L393.96 673.64" stroke="hsl(229.39999999999998, 26.2%, 100%)" stroke-width="1.5"></path><path d="M393.34 526.63L539.63 555.64" stroke="hsl(229.39999999999998, 26.2%, 100%)" stroke-width="1.5"></path><path d="M393.34 526.63L539.66 412.4" stroke="hsl(229.39999999999998, 26.2%, 100%)" stroke-width="1.5"></path><path d="M393.34 526.63L205.47 536.6" stroke="hsl(229.39999999999998, 26.2%, 100%)" stroke-width="1.5"></path><path d="M393.34 526.63L549.83 665.73" stroke="hsl(229.39999999999998, 26.2%, 100%)" stroke-width="1.5"></path><path d="M393.96 673.64L393.96 673.64" stroke="hsl(229.39999999999998, 26.2%, 100%)" stroke-width="1.5"></path><path d="M393.96 673.64L549.83 665.73" stroke="hsl(229.39999999999998, 26.2%, 100%)" stroke-width="1.5"></path><path d="M393.96 673.64L539.63 555.64" stroke="hsl(229.39999999999998, 26.2%, 100%)" stroke-width="1.5"></path><path d="M393.96 673.64L205.47 536.6" stroke="hsl(229.39999999999998, 26.2%, 100%)" stroke-width="1.5"></path><path d="M393.96 673.64L641.51 668.83" stroke="hsl(229.39999999999998, 26.2%, 100%)" stroke-width="1.5"></path><path d="M539.66 412.4L539.66 412.4" stroke="hsl(229.39999999999998, 26.2%, 100%)" stroke-width="1.5"></path><path d="M539.66 412.4L539.63 555.64" stroke="hsl(229.39999999999998, 26.2%, 100%)" stroke-width="1.5"></path><path d="M539.66 412.4L653.99 505.39" stroke="hsl(229.39999999999998, 26.2%, 100%)" stroke-width="1.5"></path><path d="M539.66 412.4L703.55 406.76" stroke="hsl(229.39999999999998, 26.2%, 100%)" stroke-width="1.5"></path><path d="M539.66 412.4L549.83 665.73" stroke="hsl(229.39999999999998, 26.2%, 100%)" stroke-width="1.5"></path><path d="M539.66 412.4L641.51 668.83" stroke="hsl(229.39999999999998, 26.2%, 100%)" stroke-width="1.5"></path><path d="M539.63 555.64L539.63 555.64" stroke="hsl(229.39999999999998, 26.2%, 100%)" stroke-width="1.5"></path><path d="M539.63 555.64L549.83 665.73" stroke="hsl(229.39999999999998, 26.2%, 100%)" stroke-width="1.5"></path><path d="M539.63 555.64L653.99 505.39" stroke="hsl(229.39999999999998, 26.2%, 100%)" stroke-width="1.5"></path><path d="M539.63 555.64L641.51 668.83" stroke="hsl(229.39999999999998, 26.2%, 100%)" stroke-width="1.5"></path><path d="M549.83 665.73L549.83 665.73" stroke="hsl(229.39999999999998, 26.2%, 100%)" stroke-width="1.5"></path><path d="M549.83 665.73L641.51 668.83" stroke="hsl(229.39999999999998, 26.2%, 100%)" stroke-width="1.5"></path><path d="M549.83 665.73L653.99 505.39" stroke="hsl(229.39999999999998, 26.2%, 100%)" stroke-width="1.5"></path><path d="M703.55 406.76L703.55 406.76" stroke="hsl(229.39999999999998, 26.2%, 100%)" stroke-width="1.5"></path><path d="M703.55 406.76L653.99 505.39" stroke="hsl(229.39999999999998, 26.2%, 100%)" stroke-width="1.5"></path><path d="M653.99 505.39L653.99 505.39" stroke="hsl(229.39999999999998, 26.2%, 100%)" stroke-width="1.5"></path><path d="M653.99 505.39L641.51 668.83" stroke="hsl(229.39999999999998, 26.2%, 100%)" stroke-width="1.5"></path><path d="M653.99 505.39L820.44 507.14" stroke="hsl(229.39999999999998, 26.2%, 100%)" stroke-width="1.5"></path><path d="M641.51 668.83L641.51 668.83" stroke="hsl(229.39999999999998, 26.2%, 100%)" stroke-width="1.5"></path><path d="M641.51 668.83L795.94 653.87" stroke="hsl(229.39999999999998, 26.2%, 100%)" stroke-width="1.5"></path><path d="M641.51 668.83L820.44 507.14" stroke="hsl(229.39999999999998, 26.2%, 100%)" stroke-width="1.5"></path><path d="M820.44 507.14L820.44 507.14" stroke="hsl(229.39999999999998, 26.2%, 100%)" stroke-width="1.5"></path><path d="M820.44 507.14L795.94 653.87" stroke="hsl(229.39999999999998, 26.2%, 100%)" stroke-width="1.5"></path><path d="M820.44 507.14L703.55 406.76" stroke="hsl(229.39999999999998, 26.2%, 100%)" stroke-width="1.5"></path><path d="M820.44 507.14L980.25 551.64" stroke="hsl(229.39999999999998, 26.2%, 100%)" stroke-width="1.5"></path><path d="M820.44 507.14L959.64 378.24" stroke="hsl(229.39999999999998, 26.2%, 100%)" stroke-width="1.5"></path><path d="M795.94 653.87L795.94 653.87" stroke="hsl(229.39999999999998, 26.2%, 100%)" stroke-width="1.5"></path><path d="M959.64 378.24L959.64 378.24" stroke="hsl(229.39999999999998, 26.2%, 100%)" stroke-width="1.5"></path><path d="M959.64 378.24L980.25 551.64" stroke="hsl(229.39999999999998, 26.2%, 100%)" stroke-width="1.5"></path><path d="M959.64 378.24L1134.12 392.59" stroke="hsl(229.39999999999998, 26.2%, 100%)" stroke-width="1.5"></path><path d="M959.64 378.24L1126.6 231.48" stroke="hsl(229.39999999999998, 26.2%, 100%)" stroke-width="1.5"></path><path d="M980.25 551.64L980.25 551.64" stroke="hsl(229.39999999999998, 26.2%, 100%)" stroke-width="1.5"></path><path d="M980.25 551.64L1124.64 556.92" stroke="hsl(229.39999999999998, 26.2%, 100%)" stroke-width="1.5"></path><path d="M980.25 551.64L995.95 706.68" stroke="hsl(229.39999999999998, 26.2%, 100%)" stroke-width="1.5"></path><path d="M995.95 706.68L995.95 706.68" stroke="hsl(229.39999999999998, 26.2%, 100%)" stroke-width="1.5"></path><path d="M995.95 706.68L1160.32 699.89" stroke="hsl(229.39999999999998, 26.2%, 100%)" stroke-width="1.5"></path><path d="M995.95 706.68L1124.64 556.92" stroke="hsl(229.39999999999998, 26.2%, 100%)" stroke-width="1.5"></path><path d="M995.95 706.68L795.94 653.87" stroke="hsl(229.39999999999998, 26.2%, 100%)" stroke-width="1.5"></path><path d="M995.95 706.68L1248.69 709.82" stroke="hsl(229.39999999999998, 26.2%, 100%)" stroke-width="1.5"></path><path d="M1126.6 231.48L1126.6 231.48" stroke="hsl(229.39999999999998, 26.2%, 100%)" stroke-width="1.5"></path><path d="M1126.6 231.48L1134.12 392.59" stroke="hsl(229.39999999999998, 26.2%, 100%)" stroke-width="1.5"></path><path d="M1126.6 231.48L1287.07 199.81" stroke="hsl(229.39999999999998, 26.2%, 100%)" stroke-width="1.5"></path><path d="M1126.6 231.48L1256.56 387.81" stroke="hsl(229.39999999999998, 26.2%, 100%)" stroke-width="1.5"></path><path d="M1126.6 231.48L1239.98 54.74" stroke="hsl(229.39999999999998, 26.2%, 100%)" stroke-width="1.5"></path><path d="M1134.12 392.59L1134.12 392.59" stroke="hsl(229.39999999999998, 26.2%, 100%)" stroke-width="1.5"></path><path d="M1134.12 392.59L1256.56 387.81" stroke="hsl(229.39999999999998, 26.2%, 100%)" stroke-width="1.5"></path><path d="M1134.12 392.59L1124.64 556.92" stroke="hsl(229.39999999999998, 26.2%, 100%)" stroke-width="1.5"></path><path d="M1124.64 556.92L1124.64 556.92" stroke="hsl(229.39999999999998, 26.2%, 100%)" stroke-width="1.5"></path><path d="M1124.64 556.92L1263.85 519.99" stroke="hsl(229.39999999999998, 26.2%, 100%)" stroke-width="1.5"></path><path d="M1160.32 699.89L1160.32 699.89" stroke="hsl(229.39999999999998, 26.2%, 100%)" stroke-width="1.5"></path><path d="M1160.32 699.89L1248.69 709.82" stroke="hsl(229.39999999999998, 26.2%, 100%)" stroke-width="1.5"></path><path d="M1160.32 699.89L1124.64 556.92" stroke="hsl(229.39999999999998, 26.2%, 100%)" stroke-width="1.5"></path><path d="M1160.32 699.89L1263.85 519.99" stroke="hsl(229.39999999999998, 26.2%, 100%)" stroke-width="1.5"></path><path d="M1160.32 699.89L980.25 551.64" stroke="hsl(229.39999999999998, 26.2%, 100%)" stroke-width="1.5"></path><path d="M1273.62 -69.41L1273.62 -69.41" stroke="hsl(229.39999999999998, 26.2%, 100%)" stroke-width="1.5"></path><path d="M1273.62 -69.41L1239.98 54.74" stroke="hsl(229.39999999999998, 26.2%, 100%)" stroke-width="1.5"></path><path d="M1273.62 -69.41L1418.45 -80.44" stroke="hsl(229.39999999999998, 26.2%, 100%)" stroke-width="1.5"></path><path d="M1273.62 -69.41L1460.47 89.89" stroke="hsl(229.39999999999998, 26.2%, 100%)" stroke-width="1.5"></path><path d="M1273.62 -69.41L1287.07 199.81" stroke="hsl(229.39999999999998, 26.2%, 100%)" stroke-width="1.5"></path><path d="M1239.98 54.74L1239.98 54.74" stroke="hsl(229.39999999999998, 26.2%, 100%)" stroke-width="1.5"></path><path d="M1239.98 54.74L1287.07 199.81" stroke="hsl(229.39999999999998, 26.2%, 100%)" stroke-width="1.5"></path><path d="M1239.98 54.74L1460.47 89.89" stroke="hsl(229.39999999999998, 26.2%, 100%)" stroke-width="1.5"></path><path d="M1239.98 54.74L1418.45 -80.44" stroke="hsl(229.39999999999998, 26.2%, 100%)" stroke-width="1.5"></path><path d="M1287.07 199.81L1287.07 199.81" stroke="hsl(229.39999999999998, 26.2%, 100%)" stroke-width="1.5"></path><path d="M1287.07 199.81L1424.37 242.67" stroke="hsl(229.39999999999998, 26.2%, 100%)" stroke-width="1.5"></path><path d="M1256.56 387.81L1256.56 387.81" stroke="hsl(229.39999999999998, 26.2%, 100%)" stroke-width="1.5"></path><path d="M1256.56 387.81L1263.85 519.99" stroke="hsl(229.39999999999998, 26.2%, 100%)" stroke-width="1.5"></path><path d="M1256.56 387.81L1422.31 347.14" stroke="hsl(229.39999999999998, 26.2%, 100%)" stroke-width="1.5"></path><path d="M1256.56 387.81L1287.07 199.81" stroke="hsl(229.39999999999998, 26.2%, 100%)" stroke-width="1.5"></path><path d="M1256.56 387.81L1124.64 556.92" stroke="hsl(229.39999999999998, 26.2%, 100%)" stroke-width="1.5"></path><path d="M1263.85 519.99L1263.85 519.99" stroke="hsl(229.39999999999998, 26.2%, 100%)" stroke-width="1.5"></path><path d="M1263.85 519.99L1134.12 392.59" stroke="hsl(229.39999999999998, 26.2%, 100%)" stroke-width="1.5"></path><path d="M1263.85 519.99L1248.69 709.82" stroke="hsl(229.39999999999998, 26.2%, 100%)" stroke-width="1.5"></path><path d="M1248.69 709.82L1248.69 709.82" stroke="hsl(229.39999999999998, 26.2%, 100%)" stroke-width="1.5"></path><path d="M1248.69 709.82L1421.95 689.36" stroke="hsl(229.39999999999998, 26.2%, 100%)" stroke-width="1.5"></path><path d="M1248.69 709.82L1124.64 556.92" stroke="hsl(229.39999999999998, 26.2%, 100%)" stroke-width="1.5"></path><path d="M1248.69 709.82L1405.74 556.85" stroke="hsl(229.39999999999998, 26.2%, 100%)" stroke-width="1.5"></path><path d="M1418.45 -80.44L1418.45 -80.44" stroke="hsl(229.39999999999998, 26.2%, 100%)" stroke-width="1.5"></path><path d="M1460.47 89.89L1460.47 89.89" stroke="hsl(229.39999999999998, 26.2%, 100%)" stroke-width="1.5"></path><path d="M1460.47 89.89L1424.37 242.67" stroke="hsl(229.39999999999998, 26.2%, 100%)" stroke-width="1.5"></path><path d="M1460.47 89.89L1418.45 -80.44" stroke="hsl(229.39999999999998, 26.2%, 100%)" stroke-width="1.5"></path><path d="M1424.37 242.67L1424.37 242.67" stroke="hsl(229.39999999999998, 26.2%, 100%)" stroke-width="1.5"></path><path d="M1424.37 242.67L1422.31 347.14" stroke="hsl(229.39999999999998, 26.2%, 100%)" stroke-width="1.5"></path><path d="M1422.31 347.14L1422.31 347.14" stroke="hsl(229.39999999999998, 26.2%, 100%)" stroke-width="1.5"></path><path d="M1422.31 347.14L1601.35 351.65" stroke="hsl(229.39999999999998, 26.2%, 100%)" stroke-width="1.5"></path><path d="M1422.31 347.14L1287.07 199.81" stroke="hsl(229.39999999999998, 26.2%, 100%)" stroke-width="1.5"></path><path d="M1421.95 689.36L1421.95 689.36" stroke="hsl(229.39999999999998, 26.2%, 100%)" stroke-width="1.5"></path><path d="M1421.95 689.36L1552.52 653.94" stroke="hsl(229.39999999999998, 26.2%, 100%)" stroke-width="1.5"></path><path d="M1421.95 689.36L1551.32 529.24" stroke="hsl(229.39999999999998, 26.2%, 100%)" stroke-width="1.5"></path><path d="M1421.95 689.36L1263.85 519.99" stroke="hsl(229.39999999999998, 26.2%, 100%)" stroke-width="1.5"></path><path d="M1421.95 689.36L1160.32 699.89" stroke="hsl(229.39999999999998, 26.2%, 100%)" stroke-width="1.5"></path><path d="M1574.34 -112.43L1574.34 -112.43" stroke="hsl(229.39999999999998, 26.2%, 100%)" stroke-width="1.5"></path><path d="M1574.34 -112.43L1418.45 -80.44" stroke="hsl(229.39999999999998, 26.2%, 100%)" stroke-width="1.5"></path><path d="M1574.34 -112.43L1460.47 89.89" stroke="hsl(229.39999999999998, 26.2%, 100%)" stroke-width="1.5"></path><path d="M1601.35 351.65L1601.35 351.65" stroke="hsl(229.39999999999998, 26.2%, 100%)" stroke-width="1.5"></path><path d="M1601.35 351.65L1551.32 529.24" stroke="hsl(229.39999999999998, 26.2%, 100%)" stroke-width="1.5"></path><path d="M1601.35 351.65L1424.37 242.67" stroke="hsl(229.39999999999998, 26.2%, 100%)" stroke-width="1.5"></path><path d="M1601.35 351.65L1552.94 81.14" stroke="hsl(229.39999999999998, 26.2%, 100%)" stroke-width="1.5"></path><path d="M1601.35 351.65L1405.74 556.85" stroke="hsl(229.39999999999998, 26.2%, 100%)" stroke-width="1.5"></path><path d="M1601.35 351.65L1460.47 89.89" stroke="hsl(229.39999999999998, 26.2%, 100%)" stroke-width="1.5"></path><path d="M1551.32 529.24L1551.32 529.24" stroke="hsl(229.39999999999998, 26.2%, 100%)" stroke-width="1.5"></path><path d="M1551.32 529.24L1552.52 653.94" stroke="hsl(229.39999999999998, 26.2%, 100%)" stroke-width="1.5"></path><path d="M1552.52 653.94L1552.52 653.94" stroke="hsl(229.39999999999998, 26.2%, 100%)" stroke-width="1.5"></path><path d="M1552.52 653.94L1601.35 351.65" stroke="hsl(229.39999999999998, 26.2%, 100%)" stroke-width="1.5"></path><circle r="25" cx="93.64" cy="498.13" fill="url(&quot;#SvgjsRadialGradient1001&quot;)"></circle><circle r="25" cx="1405.74" cy="556.85" fill="url(&quot;#SvgjsRadialGradient1001&quot;)"></circle><circle r="25" cx="1552.94" cy="81.14" fill="url(&quot;#SvgjsRadialGradient1001&quot;)"></circle><circle r="5" cx="-46.32" cy="561" fill="#ebecf3"></circle><circle r="5" cx="-102.71" cy="666.95" fill="#ebecf3"></circle><circle r="5" cx="205.47" cy="536.6" fill="#ebecf3"></circle><circle r="5" cx="191.9" cy="643.18" fill="#ebecf3"></circle><circle r="5" cx="393.34" cy="526.63" fill="#ebecf3"></circle><circle r="5" cx="393.96" cy="673.64" fill="#ebecf3"></circle><circle r="5" cx="539.66" cy="412.4" fill="#ebecf3"></circle><circle r="5" cx="539.63" cy="555.64" fill="#ebecf3"></circle><circle r="5" cx="549.83" cy="665.73" fill="#ebecf3"></circle><circle r="5" cx="703.55" cy="406.76" fill="#ebecf3"></circle><circle r="5" cx="653.99" cy="505.39" fill="#ebecf3"></circle><circle r="5" cx="641.51" cy="668.83" fill="#ebecf3"></circle><circle r="5" cx="820.44" cy="507.14" fill="#ebecf3"></circle><circle r="5" cx="795.94" cy="653.87" fill="#ebecf3"></circle><circle r="5" cx="959.64" cy="378.24" fill="#ebecf3"></circle><circle r="5" cx="980.25" cy="551.64" fill="#ebecf3"></circle><circle r="5" cx="995.95" cy="706.68" fill="#ebecf3"></circle><circle r="5" cx="1126.6" cy="231.48" fill="#ebecf3"></circle><circle r="5" cx="1134.12" cy="392.59" fill="#ebecf3"></circle><circle r="5" cx="1124.64" cy="556.92" fill="#ebecf3"></circle><circle r="5" cx="1160.32" cy="699.89" fill="#ebecf3"></circle><circle r="5" cx="1273.62" cy="-69.41" fill="#ebecf3"></circle><circle r="5" cx="1239.98" cy="54.74" fill="#ebecf3"></circle><circle r="5" cx="1287.07" cy="199.81" fill="#ebecf3"></circle><circle r="5" cx="1256.56" cy="387.81" fill="#ebecf3"></circle><circle r="5" cx="1263.85" cy="519.99" fill="#ebecf3"></circle><circle r="5" cx="1248.69" cy="709.82" fill="#ebecf3"></circle><circle r="5" cx="1418.45" cy="-80.44" fill="#ebecf3"></circle><circle r="5" cx="1460.47" cy="89.89" fill="#ebecf3"></circle><circle r="5" cx="1424.37" cy="242.67" fill="#ebecf3"></circle><circle r="5" cx="1422.31" cy="347.14" fill="#ebecf3"></circle><circle r="5" cx="1421.95" cy="689.36" fill="#ebecf3"></circle><circle r="5" cx="1574.34" cy="-112.43" fill="#ebecf3"></circle><circle r="5" cx="1601.35" cy="351.65" fill="#ebecf3"></circle><circle r="5" cx="1551.32" cy="529.24" fill="#ebecf3"></circle><circle r="5" cx="1552.52" cy="653.94" fill="#ebecf3"></circle></g><defs><mask id="SvgjsMask1000"><rect width="1440" height="560" fill="#ffffff"></rect></mask><radialGradient id="SvgjsRadialGradient1001"><stop stop-color="#ffffff" offset="0.1"></stop><stop stop-color="rgba(214, 217, 231, 1)" offset="0.2"></stop><stop stop-color="rgba(214, 217, 231, 0)" offset="1"></stop></radialGradient></defs></svg>